<svg xmlns="http://www.w3.org/2000/svg" width="468" height="282" fill="none" xmlns:v="https://vecta.io/nano"><g filter="url(#C)"><circle cx="257.5" cy="157.5" r="92.5" stroke="#f40508" stroke-width="40"/><mask id="A" maskUnits="userSpaceOnUse" x="345" y="103" width="101" height="100" fill="#000"><path fill="#fff" d="M345 103h101v100H345z"/><path d="M395.856 197.868c-8.184 0-15.707-1.901-22.568-5.704-6.861-3.885-12.317-9.217-16.368-15.996-3.968-6.861-5.952-14.591-5.952-23.188s1.984-16.285 5.952-23.064c4.051-6.861 9.507-12.193 16.368-15.996s14.384-5.704 22.568-5.704c8.267 0 15.789 1.901 22.568 5.704 6.861 3.803 12.276 9.135 16.244 15.996 3.968 6.779 5.952 14.467 5.952 23.064s-1.984 16.327-5.952 23.188c-3.968 6.779-9.383 12.111-16.244 15.996-6.861 3.803-14.384 5.704-22.568 5.704zm0-22.568c6.2 0 11.077-2.025 14.632-6.076 3.637-4.051 5.456-9.465 5.456-16.244 0-6.944-1.819-12.4-5.456-16.368-3.555-4.051-8.432-6.076-14.632-6.076-6.283 0-11.201 2.025-14.756 6.076-3.555 3.968-5.332 9.424-5.332 16.368 0 6.861 1.777 12.317 5.332 16.368 3.555 3.968 8.473 5.952 14.756 5.952z"/></mask><path d="M395.856 197.868c-8.184 0-15.707-1.901-22.568-5.704-6.861-3.885-12.317-9.217-16.368-15.996-3.968-6.861-5.952-14.591-5.952-23.188s1.984-16.285 5.952-23.064c4.051-6.861 9.507-12.193 16.368-15.996s14.384-5.704 22.568-5.704c8.267 0 15.789 1.901 22.568 5.704 6.861 3.803 12.276 9.135 16.244 15.996 3.968 6.779 5.952 14.467 5.952 23.064s-1.984 16.327-5.952 23.188c-3.968 6.779-9.383 12.111-16.244 15.996-6.861 3.803-14.384 5.704-22.568 5.704zm0-22.568c6.2 0 11.077-2.025 14.632-6.076 3.637-4.051 5.456-9.465 5.456-16.244 0-6.944-1.819-12.4-5.456-16.368-3.555-4.051-8.432-6.076-14.632-6.076-6.283 0-11.201 2.025-14.756 6.076-3.555 3.968-5.332 9.424-5.332 16.368 0 6.861 1.777 12.317 5.332 16.368 3.555 3.968 8.473 5.952 14.756 5.952z" fill="#f7b00e"/><path d="M373.288 192.164l-2.464 4.351.02.011.02.011 2.424-4.373zm-16.368-15.996l-4.328 2.503.018.031.018.031 4.292-2.565zm0-46.252l-4.306-2.542-.004.008-.005.008 4.315 2.526zm61.504-15.996l-2.446 4.361.011.006.011.006 2.424-4.373zm16.244 15.996l-4.328 2.503.006.012.007.011 4.315-2.526zm0 46.252l4.315 2.526.007-.011.006-.012-4.328-2.503zm-16.244 15.996l2.424 4.373.02-.011.02-.011-2.464-4.351zm-7.936-22.94l-3.72-3.341-.019.022-.019.021 3.758 3.298zm0-32.612l-3.758 3.298.036.041.036.04 3.686-3.379zm-29.388 0l3.724 3.336.017-.019.017-.019-3.758-3.298zm0 32.736l-3.758 3.298.017.019.017.019 3.724-3.336zm14.756 23.52c-7.374 0-14.057-1.704-20.144-5.077l-4.848 8.746c7.636 4.232 15.998 6.331 24.992 6.331v-10zm-20.104-5.055c-6.107-3.458-10.933-8.174-14.54-14.21l-8.584 5.13c4.494 7.521 10.58 13.469 18.196 17.782l4.928-8.702zm-14.504-14.148c-3.491-6.037-5.28-12.89-5.28-20.685h-10c0 9.399 2.179 18.005 6.624 25.691l8.656-5.006zm-5.28-20.685c0-7.796 1.789-14.597 5.267-20.538l-8.63-5.052c-4.458 7.616-6.637 16.191-6.637 25.59h10zm5.258-20.522c3.605-6.107 8.416-10.801 14.486-14.165l-4.848-8.746c-7.653 4.241-13.754 10.211-18.25 17.827l8.612 5.084zm14.486-14.165c6.087-3.373 12.77-5.077 20.144-5.077v-10c-8.994 0-17.356 2.099-24.992 6.331l4.848 8.746zm20.144-5.077c7.466 0 14.138 1.708 20.122 5.065l4.892-8.722c-7.573-4.248-15.947-6.343-25.014-6.343v10zM416 118.293c6.06 3.359 10.82 8.041 14.34 14.126l8.656-5.006c-4.416-7.637-10.486-13.62-18.148-17.866L416 118.293zm14.353 14.149c3.478 5.941 5.267 12.742 5.267 20.538h10c0-9.399-2.179-17.974-6.637-25.59l-8.63 5.052zm5.267 20.538c0 7.795-1.789 14.648-5.28 20.685l8.656 5.006c4.445-7.686 6.624-16.292 6.624-25.691h-10zm-5.267 20.662c-3.521 6.015-8.295 10.718-14.393 14.171l4.928 8.702c7.625-4.318 13.68-10.278 18.095-17.821l-8.63-5.052zM416 187.791c-6.087 3.373-12.77 5.077-20.144 5.077v10c8.994 0 17.356-2.099 24.992-6.331L416 187.791zm-20.144-7.491c7.399 0 13.739-2.477 18.39-7.778l-7.516-6.596c-2.458 2.801-5.873 4.374-10.874 4.374v10zm18.352-7.735c4.65-5.179 6.736-11.888 6.736-19.585h-10c0 5.86-1.551 9.98-4.176 12.903l7.44 6.682zm6.736-19.585c0-7.821-2.065-14.613-6.77-19.747l-7.372 6.758c2.569 2.802 4.142 6.922 4.142 12.989h10zm-6.698-19.666c-4.651-5.301-10.991-7.778-18.39-7.778v10c5.001 0 8.416 1.573 10.874 4.374l7.516-6.596zm-18.39-7.778c-7.459 0-13.849 2.462-18.514 7.778l7.516 6.596c2.445-2.786 5.891-4.374 10.998-4.374v-10zm-18.48 7.74c-4.6 5.135-6.608 11.912-6.608 19.704h10c0-6.096 1.547-10.231 4.056-13.032l-7.448-6.672zm-6.608 19.704c0 7.734 2.019 14.476 6.574 19.666l7.516-6.596c-2.554-2.911-4.09-7.081-4.09-13.07h-10zm6.608 19.704c4.675 5.219 11.055 7.616 18.48 7.616v-10c-5.14 0-8.597-1.571-11.032-4.288l-7.448 6.672z" fill="#000" mask="url(#A)"/><mask id="B" maskUnits="userSpaceOnUse" x="18" y="126" width="307" height="88" fill="#000"><path fill="#fff" d="M18 126h307v88H18z"/><path d="M23.074 207v-75.877h39.077c7.246 0 12.784.621 16.614 1.863s6.918 3.554 9.265 6.936c2.346 3.347 3.52 7.436 3.52 12.266 0 4.21-.897 7.85-2.691 10.921-1.794 3.037-4.261 5.504-7.401 7.402-2.001 1.207-4.744 2.208-8.229 3.002 2.795.931 4.831 1.863 6.107 2.795.863.621 2.105 1.949 3.727 3.985 1.656 2.036 2.76 3.606 3.313 4.71L97.709 207h-26.5l-12.525-23.188c-1.587-3.001-3.002-4.951-4.244-5.848-1.691-1.173-3.606-1.76-5.745-1.76h-2.07V207h-23.55zm23.55-45.133h9.886c1.07 0 3.14-.345 6.211-1.035 1.553-.311 2.812-1.104 3.778-2.381C67.5 157.174 68 155.708 68 154.052c0-2.45-.776-4.331-2.329-5.642s-4.468-1.967-8.747-1.967h-10.3v15.424zm71.146 7.971l-20.133-2.122c.759-3.52 1.846-6.28 3.261-8.281 1.449-2.036 3.52-3.796 6.211-5.28 1.932-1.069 4.589-1.898 7.971-2.484s7.039-.88 10.973-.88c6.314 0 11.386.362 15.216 1.087 3.83.69 7.022 2.157 9.576 4.399 1.794 1.553 3.209 3.761 4.244 6.625 1.035 2.83 1.552 5.538 1.552 8.126v24.275c0 2.588.156 4.623.466 6.107.345 1.449 1.07 3.313 2.174 5.59h-19.771c-.794-1.415-1.312-2.484-1.553-3.209-.242-.759-.483-1.932-.725-3.52-2.76 2.657-5.503 4.555-8.229 5.694-3.727 1.518-8.057 2.277-12.991 2.277-6.556 0-11.542-1.518-14.958-4.554-3.382-3.037-5.073-6.781-5.073-11.232 0-4.175 1.225-7.608 3.675-10.3s6.97-4.692 13.561-6.004l15.372-3.312c2.346-.656 4.83-1.501 7.453-2.536 0-2.588-.535-4.4-1.605-5.435s-2.95-1.553-5.641-1.553c-3.451 0-6.039.552-7.764 1.657-1.346.862-2.433 2.484-3.261 4.865zm18.271 11.076c-2.899 1.035-5.918 1.95-9.058 2.743-4.278 1.139-6.987 2.26-8.126 3.364-1.173 1.139-1.76 2.433-1.76 3.882 0 1.657.57 3.02 1.708 4.089 1.174 1.035 2.882 1.553 5.124 1.553 2.347 0 4.521-.569 6.522-1.708 2.036-1.139 3.468-2.519 4.296-4.141.863-1.656 1.294-3.795 1.294-6.418v-3.364zm85.794-49.791V207h-19.72v-8.126c-2.761 3.451-5.279 5.78-7.557 6.987-3.036 1.588-6.418 2.381-10.144 2.381-7.488 0-13.216-2.846-17.184-8.54-3.934-5.693-5.9-12.612-5.9-20.755 0-9.109 2.174-16.079 6.521-20.91 4.382-4.831 9.938-7.246 16.666-7.246 3.278 0 6.246.552 8.903 1.656 2.691 1.104 5.072 2.761 7.142 4.969v-26.293h21.273zm-21.118 48.238c0-4.313-.914-7.522-2.743-9.627-1.829-2.139-4.14-3.209-6.935-3.209-2.45 0-4.503 1.018-6.16 3.054s-2.484 5.452-2.484 10.248c0 4.486.845 7.781 2.536 9.886 1.726 2.07 3.848 3.105 6.366 3.105 2.692 0 4.935-1.052 6.729-3.157s2.691-5.538 2.691-10.3zm29.43-48.238h21.065v14.337h-21.065v-14.337zm0 20.91h21.065V207h-21.065v-54.967zm26.634 27.639c0-8.385 2.83-15.286 8.489-20.703 5.659-5.452 13.301-8.178 22.928-8.178 11.008 0 19.323 3.192 24.948 9.575 4.52 5.141 6.78 11.473 6.78 18.995 0 8.454-2.812 15.39-8.437 20.807-5.589 5.383-13.336 8.074-23.239 8.074-8.833 0-15.976-2.243-21.428-6.728-6.694-5.556-10.041-12.836-10.041-21.842zm21.118-.052c0 4.9.983 8.523 2.95 10.869 2.001 2.347 4.503 3.52 7.505 3.52 3.036 0 5.521-1.156 7.453-3.468 1.967-2.312 2.95-6.021 2.95-11.128 0-4.762-.983-8.298-2.95-10.61-1.967-2.347-4.4-3.52-7.298-3.52-3.071 0-5.607 1.191-7.608 3.571-2.002 2.347-3.002 5.935-3.002 10.766z"/></mask><path d="M23.074 207v-75.877h39.077c7.246 0 12.784.621 16.614 1.863s6.918 3.554 9.265 6.936c2.346 3.347 3.52 7.436 3.52 12.266 0 4.21-.897 7.85-2.691 10.921-1.794 3.037-4.261 5.504-7.401 7.402-2.001 1.207-4.744 2.208-8.229 3.002 2.795.931 4.831 1.863 6.107 2.795.863.621 2.105 1.949 3.727 3.985 1.656 2.036 2.76 3.606 3.313 4.71L97.709 207h-26.5l-12.525-23.188c-1.587-3.001-3.002-4.951-4.244-5.848-1.691-1.173-3.606-1.76-5.745-1.76h-2.07V207h-23.55zm23.55-45.133h9.886c1.07 0 3.14-.345 6.211-1.035 1.553-.311 2.812-1.104 3.778-2.381C67.5 157.174 68 155.708 68 154.052c0-2.45-.776-4.331-2.329-5.642s-4.468-1.967-8.747-1.967h-10.3v15.424zm71.146 7.971l-20.133-2.122c.759-3.52 1.846-6.28 3.261-8.281 1.449-2.036 3.52-3.796 6.211-5.28 1.932-1.069 4.589-1.898 7.971-2.484s7.039-.88 10.973-.88c6.314 0 11.386.362 15.216 1.087 3.83.69 7.022 2.157 9.576 4.399 1.794 1.553 3.209 3.761 4.244 6.625 1.035 2.83 1.552 5.538 1.552 8.126v24.275c0 2.588.156 4.623.466 6.107.345 1.449 1.07 3.313 2.174 5.59h-19.771c-.794-1.415-1.312-2.484-1.553-3.209-.242-.759-.483-1.932-.725-3.52-2.76 2.657-5.503 4.555-8.229 5.694-3.727 1.518-8.057 2.277-12.991 2.277-6.556 0-11.542-1.518-14.958-4.554-3.382-3.037-5.073-6.781-5.073-11.232 0-4.175 1.225-7.608 3.675-10.3s6.97-4.692 13.561-6.004l15.372-3.312c2.346-.656 4.83-1.501 7.453-2.536 0-2.588-.535-4.4-1.605-5.435s-2.95-1.553-5.641-1.553c-3.451 0-6.039.552-7.764 1.657-1.346.862-2.433 2.484-3.261 4.865zm18.271 11.076c-2.899 1.035-5.918 1.95-9.058 2.743-4.278 1.139-6.987 2.26-8.126 3.364-1.173 1.139-1.76 2.433-1.76 3.882 0 1.657.57 3.02 1.708 4.089 1.174 1.035 2.882 1.553 5.124 1.553 2.347 0 4.521-.569 6.522-1.708 2.036-1.139 3.468-2.519 4.296-4.141.863-1.656 1.294-3.795 1.294-6.418v-3.364zm85.794-49.791V207h-19.72v-8.126c-2.761 3.451-5.279 5.78-7.557 6.987-3.036 1.588-6.418 2.381-10.144 2.381-7.488 0-13.216-2.846-17.184-8.54-3.934-5.693-5.9-12.612-5.9-20.755 0-9.109 2.174-16.079 6.521-20.91 4.382-4.831 9.938-7.246 16.666-7.246 3.278 0 6.246.552 8.903 1.656 2.691 1.104 5.072 2.761 7.142 4.969v-26.293h21.273zm-21.118 48.238c0-4.313-.914-7.522-2.743-9.627-1.829-2.139-4.14-3.209-6.935-3.209-2.45 0-4.503 1.018-6.16 3.054s-2.484 5.452-2.484 10.248c0 4.486.845 7.781 2.536 9.886 1.726 2.07 3.848 3.105 6.366 3.105 2.692 0 4.935-1.052 6.729-3.157s2.691-5.538 2.691-10.3zm29.43-48.238h21.065v14.337h-21.065v-14.337zm0 20.91h21.065V207h-21.065v-54.967zm26.634 27.639c0-8.385 2.83-15.286 8.489-20.703 5.659-5.452 13.301-8.178 22.928-8.178 11.008 0 19.323 3.192 24.948 9.575 4.52 5.141 6.78 11.473 6.78 18.995 0 8.454-2.812 15.39-8.437 20.807-5.589 5.383-13.336 8.074-23.239 8.074-8.833 0-15.976-2.243-21.428-6.728-6.694-5.556-10.041-12.836-10.041-21.842zm21.118-.052c0 4.9.983 8.523 2.95 10.869 2.001 2.347 4.503 3.52 7.505 3.52 3.036 0 5.521-1.156 7.453-3.468 1.967-2.312 2.95-6.021 2.95-11.128 0-4.762-.983-8.298-2.95-10.61-1.967-2.347-4.4-3.52-7.298-3.52-3.071 0-5.607 1.191-7.608 3.571-2.002 2.347-3.002 5.935-3.002 10.766z" fill="#fff"/><path d="M23.074 207h-5v5h5v-5zm0-75.877v-5h-5v5h5zm64.956 8.799l-4.108 2.85.007.01.007.01 4.094-2.87zm.828 23.187l4.305 2.544.006-.011.006-.01-4.317-2.523zm-7.401 7.402l2.583 4.281.003-.002-2.586-4.279zm-8.229 3.002l-1.11-4.875-17.423 3.967 16.953 5.651 1.581-4.743zm6.107 2.795l-2.947 4.039.013.009.013.009 2.922-4.057zm3.727 3.985l-3.911 3.115.016.02.016.02 3.878-3.155zm3.313 4.71l-4.472 2.236.014.027.014.027 4.445-2.29zM97.709 207v5h8.201l-3.756-7.29-4.445 2.29zm-26.5 0l-4.399 2.376L68.227 212h2.982v-5zm-12.525-23.188l-4.42 2.338.01.019.011.02 4.399-2.377zm-4.244-5.848l2.927-4.054-.038-.027-.039-.027-2.85 4.108zm-7.815-1.76v-5h-5v5h5zm0 30.796v5h5v-5h-5zm0-45.133h-5v5h5v-5zm16.097-1.035l-.981-4.903-.058.012-.058.013 1.096 4.878zm3.778-2.381l-3.935-3.084-.026.033-.026.034 3.987 3.017zm-19.875-12.008v-5h-5v5h5zM28.074 207v-75.877h-10V207h10zm-5-70.877h39.077v-10H23.074v10zm39.077 0c7.07 0 11.988.619 15.072 1.619l3.085-9.512c-4.576-1.484-10.735-2.107-18.157-2.107v10zm15.072 1.619c2.765.897 4.962 2.526 6.699 5.03l8.216-5.701c-2.955-4.258-6.935-7.253-11.83-8.841l-3.085 9.512zm6.713 5.05c1.656 2.362 2.614 5.401 2.614 9.396h10c0-5.666-1.388-10.804-4.425-15.136l-8.188 5.74zm2.614 9.396c0 3.487-.737 6.223-2.008 8.399l8.634 5.045c2.317-3.967 3.374-8.511 3.374-13.444h-10zm-1.996 8.378c-1.357 2.295-3.221 4.178-5.683 5.666l5.173 8.558c3.818-2.308 6.888-5.36 9.12-9.137l-8.609-5.087zm-5.68 5.664c-1.371.827-3.546 1.676-6.756 2.408l2.22 9.75c3.76-.856 7.071-2.008 9.703-3.596l-5.167-8.562zm-7.227 12.026c2.651.884 4.098 1.621 4.741 2.091l5.895-8.078c-1.91-1.394-4.535-2.52-7.474-3.5l-3.162 9.487zm4.767 2.109c-.002-.001.018.013.062.05a4.4 4.4 0 0 1 .18.159c.156.145.357.344.606.611.502.536 1.129 1.269 1.889 2.223l7.822-6.23c-1.613-2.026-3.232-3.86-4.716-4.928l-5.843 8.115zm2.77 3.083c1.623 1.996 2.428 3.209 2.719 3.791l8.944-4.472c-.813-1.626-2.217-3.553-3.906-5.629l-7.757 6.31zm2.746 3.845l11.335 21.997 8.89-4.58-11.335-21.997-8.889 4.58zM97.709 202h-26.5v10h26.5v-10zm-22.101 2.624l-12.525-23.188-8.798 4.753 12.525 23.187 8.798-4.752zm-12.504-23.149c-1.612-3.048-3.476-5.931-5.737-7.565l-5.855 8.107c-.012-.008.069.05.236.229a8.39 8.39 0 0 1 .637.789c.526.725 1.154 1.745 1.878 3.115l8.84-4.675zm-5.814-7.619c-2.562-1.778-5.48-2.652-8.596-2.652v10c1.163 0 2.075.299 2.895.868l5.701-8.216zm-8.596-2.652h-2.07v10h2.07v-10zm-7.07 5V207h10v-30.796h-10zm5 25.796h-23.55v10h23.55v-10zm0-35.133h9.886v-10h-9.886v10zm9.886 0c1.715 0 4.322-.486 7.307-1.157l-2.193-9.756c-1.485.333-2.672.571-3.582.722a19.55 19.55 0 0 1-1.089.156 9.46 9.46 0 0 1-.322.03l-.09.004c-.011.001-.018.001-.024.001l-.008 10zm7.192-1.132c2.766-.553 5.09-2.027 6.785-4.267l-7.974-6.034c-.237.314-.433.427-.772.495l1.961 9.806zm6.733-4.199A11.93 11.93 0 0 0 73 154.052H63c0 .563-.141.938-.436 1.315l7.871 6.169zM73 154.052c0-3.59-1.194-7.005-4.103-9.462l-6.452 7.64c.196.166.555.512.555 1.822h10zm-4.103-9.462c-1.612-1.361-3.58-2.106-5.48-2.533-1.935-.435-4.128-.614-6.493-.614v10c1.914 0 3.319.15 4.299.37 1.015.228 1.281.467 1.222.417l6.452-7.64zm-11.973-3.147h-10.3v10h10.3v-10zm-15.3 5v15.424h10v-15.424h-10zm76.146 23.395l-.524 4.972 3.944.416 1.303-3.746-4.723-1.642zm-20.133-2.122l-4.888-1.054-1.174 5.443 5.537.583.524-4.972zm3.261-8.281l-4.073-2.9-.005.007-.005.006 4.083 2.887zm6.211-5.28l2.414 4.379.008-.004-2.422-4.375zm34.16-2.277l-.929 4.913.021.004.022.004.886-4.921zm9.576 4.399l-3.3 3.757.014.012.014.012 3.272-3.781zm4.244 6.625l-4.703 1.7.004.009.003.009 4.696-1.718zm2.018 38.508l-4.894 1.024.014.068.016.066 4.864-1.158zm2.174 5.59v5h7.981l-3.482-7.181L159.28 207zm-19.771 0l-4.361 2.446L136.58 212h2.929v-5zm-1.553-3.209l-4.765 1.516.011.033.01.032 4.744-1.581zm-.725-3.52l4.943-.752-1.452-9.547-6.958 6.697 3.467 3.602zm-8.229 5.694l1.886 4.63.021-.008.02-.009-1.927-4.613zm-27.949-2.277l-3.341 3.72.009.008.009.009 3.322-3.737zm-1.398-21.532l-3.698-3.365 3.698 3.365zm13.561-6.004l.975 4.904.009-.002-.984-4.902zm15.372-3.312l1.279 4.833.033-.008.033-.01-1.345-4.815zm7.453-2.536l1.836 4.65 3.164-1.249v-3.401h-5zm-15.01-5.331l-2.695-4.212-.003.002 2.698 4.21zm15.01 15.941h5v-7.095l-6.682 2.386 1.682 4.709zm-9.058 2.743l-1.225-4.847-.03.007-.031.008 1.286 4.832zm-8.126 3.364l-3.481-3.589-.001.002 3.482 3.587zm-.052 7.971l-3.423 3.644.057.054.058.051 3.308-3.749zm11.646-.155l-2.441-4.364-.016.009-.016.009 2.473 4.346zm4.296-4.141l-4.435-2.309-.009.017-.009.018 4.453 2.274zm-16.453-25.831l-20.133-2.122-1.048 9.945 20.134 2.122 1.048-9.945zm-15.77 3.905c.678-3.143 1.568-5.193 2.456-6.449l-8.166-5.773c-1.942 2.747-3.225 6.218-4.065 10.114l9.775 2.108zm2.447-6.436c.925-1.3 2.369-2.597 4.551-3.8l-4.828-8.757c-3.2 1.764-5.897 3.987-7.87 6.758l8.147 5.799zm4.559-3.804c1.252-.693 3.302-1.395 6.403-1.933l-1.709-9.853c-3.661.636-6.925 1.59-9.537 3.037l4.843 8.749zm6.403-1.933c3.062-.531 6.431-.806 10.119-.806v-10c-4.18 0-8.127.311-11.828.953l1.709 9.853zm10.119-.806c6.168 0 10.892.357 14.287 1l1.859-9.826c-4.265-.807-9.686-1.174-16.146-1.174v10zm14.33 1.008c3.067.552 5.386 1.675 7.162 3.235l6.599-7.513c-3.331-2.926-7.395-4.736-11.988-5.564l-1.773 9.842zm7.19 3.259c.989.856 1.989 2.262 2.813 4.544l9.405-3.399c-1.246-3.446-3.075-6.457-5.675-8.706l-6.543 7.561zm2.82 4.562c.866 2.368 1.248 4.494 1.248 6.408h10c0-3.261-.653-6.552-1.857-9.844l-9.391 3.436zm1.248 6.408v24.275h10v-24.275h-10zm0 24.275c0 2.727.159 5.157.572 7.131l9.788-2.048c-.208-.993-.36-2.635-.36-5.083h-10zm.602 7.265c.468 1.963 1.37 4.202 2.539 6.613l8.998-4.362c-1.039-2.144-1.586-3.632-1.809-4.567l-9.728 2.316zm7.038-.568h-19.771v10h19.771v-10zm-15.411 2.554c-.771-1.375-1.087-2.097-1.17-2.344l-9.487 3.162c.401 1.203 1.12 2.619 1.936 4.074l8.721-4.892zm-1.149-2.279c-.117-.369-.312-1.223-.546-2.756l-9.886 1.505c.25 1.641.538 3.134.903 4.283l9.529-3.032zm-8.956-5.606c-2.44 2.349-4.677 3.842-6.689 4.682l3.854 9.227c3.439-1.436 6.689-3.739 9.77-6.704l-6.935-7.205zm-6.649 4.665c-3.008 1.226-6.675 1.908-11.104 1.908v10c5.439 0 10.433-.836 14.877-2.647l-3.773-9.261zm-11.104 1.908c-5.858 0-9.465-1.361-11.637-3.292l-6.643 7.475c4.66 4.142 11.025 5.817 18.28 5.817v-10zm-11.618-3.275c-2.351-2.111-3.413-4.513-3.413-7.511h-10c0 5.904 2.319 10.99 6.732 14.952l6.681-7.441zm-3.413-7.511c0-3.126.884-5.299 2.373-6.934l-7.395-6.731c-3.411 3.747-4.977 8.441-4.977 13.665h10zm2.373-6.934c1.338-1.47 4.526-3.21 10.838-4.466l-1.951-9.808c-6.869 1.367-12.721 3.63-16.282 7.543l7.395 6.731zm10.847-4.468l15.667-3.381-2.559-9.667c-2.172.575-7.139 1.65-15.077 3.244l1.969 9.804zm15.733-3.399c2.536-.708 5.185-1.612 7.944-2.701l-3.672-9.301c-2.486.981-4.806 1.769-6.963 2.371l2.691 9.631zm11.108-7.351c0-3.01-.573-6.556-3.128-9.028l-6.954 7.186c-.23-.223-.202-.339-.115-.042.092.312.197.905.197 1.884h10zm-3.128-9.028c-2.514-2.433-6.08-2.96-9.118-2.96v10c1.054 0 1.723.105 2.102.209s.288.156.062-.063l6.954-7.186zm-9.118-2.96c-3.823 0-7.549.583-10.459 2.445l5.39 8.423c.541-.346 1.991-.868 5.069-.868v-10zm-10.462 2.447c-2.697 1.729-4.288 4.565-5.285 7.432l9.445 3.285c.659-1.894 1.241-2.301 1.236-2.298l-5.396-8.419zm16.026 15.442c-2.741.979-5.607 1.848-8.601 2.605l2.45 9.695c3.287-.831 6.459-1.791 9.514-2.882l-3.363-9.418zm-8.662 2.62c-2.257.601-4.234 1.231-5.867 1.908-1.528.632-3.196 1.479-4.454 2.699l6.962 7.179c-.119.116.137-.15 1.317-.639 1.076-.445 2.592-.945 4.614-1.483l-2.572-9.664zm-10.322 4.609c-2.007 1.948-3.278 4.489-3.278 7.469h10c0-.022.002-.024 0-.012s-.006.02-.006.019.013-.027.047-.075a1.83 1.83 0 0 1 .202-.226l-6.965-7.175zm-3.278 7.469c0 2.944 1.075 5.657 3.285 7.733l6.847-7.288c-.049-.046-.071-.075-.079-.086s-.01-.016-.012-.021-.041-.091-.041-.338h-10zm3.4 7.838c2.414 2.13 5.493 2.804 8.432 2.804v-10c-1.546 0-1.883-.362-1.815-.302l-6.617 7.498zm8.432 2.804c3.197 0 6.225-.786 8.995-2.362l-4.946-8.692a7.96 7.96 0 0 1-4.049 1.054v10zm8.963-2.344c2.657-1.487 4.919-3.512 6.308-6.231l-8.906-4.548c-.268.525-.87 1.26-2.284 2.051l4.882 8.728zm6.289-6.195c1.354-2.599 1.86-5.607 1.86-8.728h-10c0 2.125-.357 3.395-.729 4.109l8.869 4.619zm1.86-8.728v-3.364h-10v3.364h10zm80.794-53.155h5v-5h-5v5zm0 75.877v5h5v-5h-5zm-19.72 0h-5v5h5v-5zm0-8.126h5V184.62l-8.905 11.131 3.905 3.123zm-7.557 6.987l2.316 4.431.014-.006.013-.007-2.343-4.418zm-27.328-6.159l-4.114 2.842.006.009.006.008 4.102-2.859zm.621-41.665l-3.703-3.359-.007.007-.006.007 3.716 3.345zm25.569-5.59l-1.919 4.617.01.005.011.004 1.898-4.626zm7.142 4.969l-3.648 3.42 8.648 9.224v-12.644h-5zm0-26.293v-5h-5v5h5zm-2.588 38.611l-3.8 3.249.013.016.013.015 3.774-3.28zm-13.043 19.979l-3.898 3.131.028.035.029.035 3.841-3.201zm31.904-58.59V207h10v-75.877h-10zm5 70.877h-19.72v10h19.72v-10zm-14.72 5v-8.126h-10V207h10zm-8.905-11.249c-2.595 3.244-4.605 4.956-5.994 5.693l4.685 8.835c3.165-1.679 6.193-4.625 9.118-8.282l-7.809-6.246zm-5.968 5.679c-2.26 1.182-4.836 1.812-7.828 1.812v10c4.461 0 8.648-.957 12.46-2.95l-4.632-8.862zm-7.828 1.812c-6.005 0-10.132-2.167-13.082-6.399l-8.204 5.718c4.987 7.155 12.315 10.681 21.286 10.681v-10zm-13.07-6.382c-3.26-4.718-5.014-10.601-5.014-17.913h-10c0 8.975 2.179 16.929 6.786 23.597l8.228-5.684zm-5.014-17.913c0-8.369 1.997-13.964 5.238-17.565l-7.433-6.69c-5.455 6.061-7.805 14.406-7.805 24.255h10zm5.224-17.55c3.401-3.749 7.595-5.606 12.963-5.606v-10c-8.088 0-15.006 2.974-20.369 8.887l7.406 6.719zm12.963-5.606c2.711 0 5.014.455 6.984 1.273l3.837-9.234c-3.344-1.39-6.975-2.039-10.821-2.039v10zm7.005 1.282c2.001.821 3.792 2.055 5.392 3.763l7.296-6.84c-2.54-2.709-5.511-4.787-8.893-6.175l-3.795 9.252zm14.04.343v-26.293h-10v26.293h10zm-5-21.293h21.273v-10h-21.273v10zm5.155 43.238c0-4.888-1.016-9.508-3.968-12.906l-7.549 6.559c.705.811 1.517 2.609 1.517 6.347h10zm-3.942-12.876c-2.771-3.241-6.468-4.96-10.736-4.96v10c1.321 0 2.248.421 3.135 1.458l7.601-6.498zm-10.736-4.96c-4.073 0-7.51 1.791-10.038 4.899l7.757 6.311c.784-.964 1.454-1.21 2.281-1.21v-10zm-10.038 4.899c-2.776 3.412-3.606 8.296-3.606 13.403h10c0-4.485.827-6.433 1.363-7.092l-7.757-6.311zm-3.606 13.403c0 4.932.896 9.604 3.638 13.017l7.796-6.262c-.639-.797-1.434-2.716-1.434-6.755h-10zm3.695 13.087c2.6 3.119 6.09 4.904 10.207 4.904v-10c-.92 0-1.674-.285-2.525-1.306l-7.682 6.402zm10.207 4.904c4.202 0 7.82-1.729 10.534-4.913l-7.61-6.488c-.875 1.026-1.742 1.401-2.924 1.401v10zm10.534-4.913c2.954-3.466 3.886-8.375 3.886-13.544h-10c0 4.355-.862 6.313-1.496 7.056l7.61 6.488zm28.316-61.782v-5h-5v5h5zm21.065 0h5v-5h-5v5zm0 14.337v5h5v-5h-5zm-21.065 0h-5v5h5v-5zm0 6.573v-5h-5v5h5zm21.065 0h5v-5h-5v5zm0 54.967v5h5v-5h-5zm-21.065 0h-5v5h5v-5zm0-70.877h21.065v-10h-21.065v10zm16.065-5v14.337h10v-14.337h-10zm5 9.337h-21.065v10h21.065v-10zm-16.065 5v-14.337h-10v14.337h10zm-5 11.573h21.065v-10h-21.065v10zm16.065-5V207h10v-54.967h-10zm5 49.967h-21.065v10h21.065v-10zm-16.065 5v-54.967h-10V207h10zm30.123-48.031l3.457 3.612.006-.006.006-.005-3.469-3.601zm47.876 1.397l3.755-3.301-.004-.004-3.751 3.305zm-1.657 39.802l3.469 3.602v-.001l-3.469-3.601zm-44.667 1.346l-3.193 3.847.008.007.009.007 3.176-3.861zm14.027-11.025l-3.832 3.212.014.017.014.016 3.804-3.245zm14.958.052l-3.808-3.24-.015.017-.014.016 3.837 3.207zm0-21.738l-3.832 3.212.012.014.012.014 3.808-3.24zm-14.906.051l3.804 3.245.011-.013.012-.014-3.827-3.218zm-19.12 10.818c0-7.128 2.347-12.689 6.946-17.091l-6.915-7.224c-6.719 6.432-10.031 14.673-10.031 24.315h10zm6.958-17.102c4.526-4.362 10.818-6.779 19.459-6.779v-10c-10.612 0-19.606 3.034-26.397 9.577l6.938 7.202zm19.459-6.779c10.021 0 16.782 2.871 21.196 7.881l7.503-6.611c-6.835-7.758-16.705-11.27-28.699-11.27v10zm21.193 7.877c3.636 4.136 5.535 9.257 5.535 15.693h10c0-8.608-2.621-16.15-8.025-22.296l-7.51 6.603zm5.535 15.693c0 7.22-2.346 12.814-6.905 17.206l6.937 7.202c6.689-6.443 9.968-14.72 9.968-24.408h-10zm-6.905 17.205c-4.42 4.257-10.789 6.676-19.771 6.676v10c10.824 0 19.949-2.964 26.708-9.472l-6.937-7.204zm-19.771 6.676c-7.973 0-13.9-2.01-18.251-5.589l-6.353 7.722c6.553 5.392 14.911 7.867 24.604 7.867v-10zm-18.234-5.576c-5.504-4.567-8.235-10.415-8.235-17.994h-10c0 10.433 3.964 19.146 11.848 25.689l6.387-7.695zm2.883-18.046c0 5.413 1.059 10.432 4.118 14.081l7.664-6.424c-.875-1.043-1.782-3.27-1.782-7.657h-10zm4.146 14.114c2.921 3.425 6.798 5.275 11.309 5.275v-10c-1.493 0-2.62-.497-3.701-1.764l-7.608 6.489zm11.309 5.275c4.504 0 8.398-1.803 11.289-5.261l-7.673-6.414c-.973 1.166-2.048 1.675-3.616 1.675v10zm11.261-5.228c3.111-3.656 4.142-8.82 4.142-14.368h-10c0 4.666-.935 6.921-1.758 7.888l7.616 6.48zm4.142-14.368c0-5.308-1.073-10.243-4.142-13.85l-7.616 6.48c.865 1.017 1.758 3.155 1.758 7.37h10zm-4.118-13.822c-2.856-3.407-6.66-5.308-11.13-5.308v10c1.327 0 2.388.446 3.466 1.732l7.664-6.424zm-11.13-5.308c-4.569 0-8.499 1.86-11.436 5.354l7.655 6.435c1.065-1.268 2.208-1.789 3.781-1.789v-10zm-11.413 5.327c-3.105 3.641-4.197 8.629-4.197 14.01h10c0-4.281.909-6.469 1.806-7.521l-7.609-6.489z" fill="#000" mask="url(#B)"/><path d="M326.482 85.678a2.5 2.5 0 0 0 4.244 2.642l-4.244-2.642zm16.009-25.716l-16.009 25.716 4.244 2.642 16.009-25.716-4.244-2.642z" fill="#000"/><path d="M323.804 75.794a5 5 0 0 1 6.887-1.602l1.129.703a5 5 0 0 1 1.602 6.887l-3.746 6.018a2 2 0 0 1-2.755.641L319 83.51l4.804-7.716z" fill="#000"/><path d="M351.282 65.704a4 4 0 0 1-5.508 1.281l-1.601-.997c-.991-.617-1.294-1.92-.677-2.911h0c.617-.991 1.92-1.294 2.911-.677l4.996 3.11-.121.194z" fill="#000"/><path d="M337 46c11.881 4.643 17.464 8.69 25 19" stroke="#f40508" stroke-width="6" stroke-linecap="round"/><path d="M338 34c17.584 6.842 25.846 12.807 37 28" stroke="#f40508" stroke-width="6" stroke-linecap="round"/><path d="M342 21c21.123 8.275 31.048 15.489 44.447 33.864" stroke="#f40508" stroke-width="6" stroke-linecap="round"/></g><defs><filter id="C" x=".074" y="-.001" width="467.546" height="292.001" filterUnits="userSpaceOnUse" color-interpolation-filters="sRGB"><feFlood flood-opacity="0" result="A"/><feColorMatrix in="SourceAlpha" values="0 0 0 0 0 0 0 0 0 0 0 0 0 0 0 0 0 0 127 0" result="B"/><feOffset dx="2" dy="2"/><feGaussianBlur stdDeviation="10"/><feComposite in2="B" operator="out"/><feColorMatrix values="0 0 0 0 0 0 0 0 0 0 0 0 0 0 0 0 0 0 0.4 0"/><feBlend in2="A"/><feBlend in="SourceGraphic"/></filter></defs></svg>